<svg xmlns="http://www.w3.org/2000/svg" xmlns:xlink="http://www.w3.org/1999/xlink" width="237.311" height="207.417" viewBox="0 0 237.311 207.417">
  <defs>
    <filter id="Path_1077" x="132" y="2" width="105.311" height="94.417" filterUnits="userSpaceOnUse">
      <feOffset dx="6" dy="3" input="SourceAlpha"/>
      <feGaussianBlur stdDeviation="4" result="blur"/>
      <feFlood flood-opacity="0.702"/>
      <feComposite operator="in" in2="blur"/>
      <feComposite in="SourceGraphic"/>
    </filter>
    <filter id="Path_1079" x="132" y="76" width="105.311" height="94.417" filterUnits="userSpaceOnUse">
      <feOffset dx="6" dy="3" input="SourceAlpha"/>
      <feGaussianBlur stdDeviation="4" result="blur-2"/>
      <feFlood flood-opacity="0.702"/>
      <feComposite operator="in" in2="blur-2"/>
      <feComposite in="SourceGraphic"/>
    </filter>
    <filter id="Path_1077-2" x="65" y="38" width="105.311" height="94.417" filterUnits="userSpaceOnUse">
      <feOffset dx="6" dy="3" input="SourceAlpha"/>
      <feGaussianBlur stdDeviation="4" result="blur-3"/>
      <feFlood flood-opacity="0.702"/>
      <feComposite operator="in" in2="blur-3"/>
      <feComposite in="SourceGraphic"/>
    </filter>
    <filter id="Path_1079-2" x="65" y="113" width="105.311" height="94.417" filterUnits="userSpaceOnUse">
      <feOffset dx="6" dy="3" input="SourceAlpha"/>
      <feGaussianBlur stdDeviation="4" result="blur-4"/>
      <feFlood flood-opacity="0.702"/>
      <feComposite operator="in" in2="blur-4"/>
      <feComposite in="SourceGraphic"/>
    </filter>
    <filter id="Path_1080" x="0" y="0" width="105.311" height="94.417" filterUnits="userSpaceOnUse">
      <feOffset dx="6" dy="3" input="SourceAlpha"/>
      <feGaussianBlur stdDeviation="4" result="blur-5"/>
      <feFlood flood-opacity="0.702"/>
      <feComposite operator="in" in2="blur-5"/>
      <feComposite in="SourceGraphic"/>
    </filter>
  </defs>
  <g id="Group_16" data-name="Group 16" transform="translate(-1661.496 -2796.052)">
    <g id="Group_7" data-name="Group 7" transform="translate(811 -87)">
      <g transform="matrix(1, 0, 0, 1, 850.5, 2883.05)" filter="url(#Path_1077)">
        <path id="Path_1077-3" data-name="Path 1077" d="M60.983,0H20.328L0,35.208,20.328,70.417H60.983L81.311,35.208Z" transform="translate(138 11)" fill="#a46c0c" opacity="0.62"/>
      </g>
      <g transform="matrix(1, 0, 0, 1, 850.5, 2883.05)" filter="url(#Path_1079)">
        <path id="Path_1079-3" data-name="Path 1079" d="M60.983,0H20.328L0,35.208,20.328,70.417H60.983L81.311,35.208Z" transform="translate(138 85)" fill="#a46c0c" opacity="0.62"/>
      </g>
    </g>
    <g id="Group_8" data-name="Group 8" transform="translate(744 -50)">
      <g transform="matrix(1, 0, 0, 1, 917.5, 2846.05)" filter="url(#Path_1077-2)">
        <path id="Path_1077-4" data-name="Path 1077" d="M60.983,0H20.328L0,35.208,20.328,70.417H60.983L81.311,35.208Z" transform="translate(71 47)" fill="#a46c0c" opacity="0.62"/>
      </g>
      <g transform="matrix(1, 0, 0, 1, 917.5, 2846.05)" filter="url(#Path_1079-2)">
        <path id="Path_1079-4" data-name="Path 1079" d="M60.983,0H20.328L0,35.208,20.328,70.417H60.983L81.311,35.208Z" transform="translate(71 122)" fill="#a46c0c" opacity="0.62"/>
      </g>
      <g transform="matrix(1, 0, 0, 1, 917.5, 2846.05)" filter="url(#Path_1080)">
        <path id="Path_1080-2" data-name="Path 1080" d="M60.983,0H20.328L0,35.208,20.328,70.417H60.983L81.311,35.208Z" transform="translate(6 9)" fill="#a46c0c" opacity="0.62"/>
      </g>
    </g>
  </g>
</svg>
