<svg xmlns="http://www.w3.org/2000/svg" xmlns:xlink="http://www.w3.org/1999/xlink" width="448.764" height="389.124" viewBox="0 0 448.764 389.124">
  <defs>
    <filter id="Path_28" x="0" y="108.08" width="262.51" height="230.555" filterUnits="userSpaceOnUse">
      <feOffset dx="6" dy="3" input="SourceAlpha"/>
      <feGaussianBlur stdDeviation="4" result="blur"/>
      <feFlood flood-opacity="0.702"/>
      <feComposite operator="in" in2="blur"/>
      <feComposite in="SourceGraphic"/>
    </filter>
    <filter id="Path_30" x="186.254" y="0" width="262.51" height="230.555" filterUnits="userSpaceOnUse">
      <feOffset dx="6" dy="3" input="SourceAlpha"/>
      <feGaussianBlur stdDeviation="4" result="blur-2"/>
      <feFlood flood-opacity="0.702"/>
      <feComposite operator="in" in2="blur-2"/>
      <feComposite in="SourceGraphic"/>
    </filter>
    <filter id="Path_31" x="202.219" y="214.226" width="198.242" height="174.898" filterUnits="userSpaceOnUse">
      <feOffset dx="6" dy="3" input="SourceAlpha"/>
      <feGaussianBlur stdDeviation="4" result="blur-3"/>
      <feFlood flood-opacity="0.702"/>
      <feComposite operator="in" in2="blur-3"/>
      <feComposite in="SourceGraphic"/>
    </filter>
  </defs>
  <g id="Group_5" data-name="Group 5" transform="translate(-1248.346 -2979.345)">
    <g transform="matrix(1, 0, 0, 1, 1248.35, 2979.35)" filter="url(#Path_28)">
      <path id="Path_28-2" data-name="Path 28" d="M178.883,0H59.628L0,103.278,59.628,206.556H178.883L238.51,103.278Z" transform="translate(6 117.08)" fill="#2b4e3e" opacity="0.62"/>
    </g>
    <g transform="matrix(1, 0, 0, 1, 1248.35, 2979.35)" filter="url(#Path_30)">
      <path id="Path_30-2" data-name="Path 30" d="M178.883,0H59.628L0,103.278,59.628,206.556H178.883L238.51,103.278Z" transform="translate(192.25 9)" fill="#363636" opacity="0.55"/>
    </g>
    <g transform="matrix(1, 0, 0, 1, 1248.35, 2979.35)" filter="url(#Path_31)">
      <path id="Path_31-2" data-name="Path 31" d="M130.682,0H43.561L0,75.449,43.561,150.9h87.121l43.561-75.449Z" transform="translate(208.22 223.23)" fill="#605d5d" opacity="0.33"/>
    </g>
  </g>
</svg>
