<svg xmlns="http://www.w3.org/2000/svg" xmlns:xlink="http://www.w3.org/1999/xlink" width="171.311" height="168.417" viewBox="0 0 171.311 168.417">
  <defs>
    <filter id="Path_1077" x="1" y="0" width="105.311" height="94.417" filterUnits="userSpaceOnUse">
      <feOffset dx="6" dy="3" input="SourceAlpha"/>
      <feGaussianBlur stdDeviation="4" result="blur"/>
      <feFlood flood-opacity="0.702"/>
      <feComposite operator="in" in2="blur"/>
      <feComposite in="SourceGraphic"/>
    </filter>
    <filter id="Path_1078" x="66" y="39" width="105.311" height="94.417" filterUnits="userSpaceOnUse">
      <feOffset dx="6" dy="3" input="SourceAlpha"/>
      <feGaussianBlur stdDeviation="4" result="blur-2"/>
      <feFlood flood-opacity="0.702"/>
      <feComposite operator="in" in2="blur-2"/>
      <feComposite in="SourceGraphic"/>
    </filter>
    <filter id="Path_1079" x="0" y="74" width="105.311" height="94.417" filterUnits="userSpaceOnUse">
      <feOffset dx="6" dy="3" input="SourceAlpha"/>
      <feGaussianBlur stdDeviation="4" result="blur-3"/>
      <feFlood flood-opacity="0.702"/>
      <feComposite operator="in" in2="blur-3"/>
      <feComposite in="SourceGraphic"/>
    </filter>
  </defs>
  <g id="Group_6" data-name="Group 6" transform="translate(-982.496 -2885.052)">
    <g transform="matrix(1, 0, 0, 1, 982.5, 2885.05)" filter="url(#Path_1077)">
      <path id="Path_1077-2" data-name="Path 1077" d="M60.983,0H20.328L0,35.208,20.328,70.417H60.983L81.311,35.208Z" transform="translate(7 9)" fill="#a46c0c" opacity="0.62"/>
    </g>
    <g transform="matrix(1, 0, 0, 1, 982.5, 2885.05)" filter="url(#Path_1078)">
      <path id="Path_1078-2" data-name="Path 1078" d="M60.983,0H20.328L0,35.208,20.328,70.417H60.983L81.311,35.208Z" transform="translate(72 48)" fill="#a46c0c" opacity="0.62"/>
    </g>
    <g transform="matrix(1, 0, 0, 1, 982.5, 2885.05)" filter="url(#Path_1079)">
      <path id="Path_1079-2" data-name="Path 1079" d="M60.983,0H20.328L0,35.208,20.328,70.417H60.983L81.311,35.208Z" transform="translate(6 83)" fill="#a46c0c" opacity="0.62"/>
    </g>
  </g>
</svg>
