<svg xmlns="http://www.w3.org/2000/svg" xmlns:xlink="http://www.w3.org/1999/xlink" viewBox="0 0 92.05 174.1"><defs><style>.cls-1{fill:url(#Névtelen_színátmenet_20);}.cls-2{fill:url(#Névtelen_színátmenet_20-2);}.cls-3{fill:url(#Névtelen_színátmenet_20-3);}.cls-4{fill:url(#Névtelen_színátmenet_20-4);}.cls-5{fill:url(#Névtelen_színátmenet_20-5);}.cls-6{fill:url(#Névtelen_színátmenet_20-6);}.cls-7{fill:url(#Névtelen_színátmenet_20-7);}.cls-8{fill:url(#Névtelen_színátmenet_20-8);}.cls-9{fill:url(#Névtelen_színátmenet_20-9);}.cls-10{fill:url(#Névtelen_színátmenet_20-10);}.cls-11{fill:url(#Névtelen_színátmenet_20-11);}</style><linearGradient id="Névtelen_színátmenet_20" x1="5.09" y1="0.18" x2="28.06" y2="32.29" gradientUnits="userSpaceOnUse"><stop offset="0" stop-color="#878787"/><stop offset="0.62" stop-color="#565655"/><stop offset="1" stop-color="#3c3c3b"/></linearGradient><linearGradient id="Névtelen_színátmenet_20-2" x1="33.64" y1="-3.46" x2="59.19" y2="32.27" xlink:href="#Névtelen_színátmenet_20"/><linearGradient id="Névtelen_színátmenet_20-3" x1="62.38" y1="-2.1" x2="88.61" y2="34.57" xlink:href="#Névtelen_színátmenet_20"/><linearGradient id="Névtelen_színátmenet_20-4" x1="2.33" y1="55" x2="28.55" y2="91.66" xlink:href="#Névtelen_színátmenet_20"/><linearGradient id="Névtelen_színátmenet_20-5" x1="33.64" y1="55.89" x2="59.19" y2="91.61" xlink:href="#Névtelen_színátmenet_20"/><linearGradient id="Névtelen_színátmenet_20-6" x1="64.73" y1="55.8" x2="86.56" y2="86.33" xlink:href="#Névtelen_színátmenet_20"/><linearGradient id="Névtelen_színátmenet_20-7" x1="1.84" y1="26.37" x2="27.16" y2="61.77" xlink:href="#Névtelen_színátmenet_20"/><linearGradient id="Névtelen_színátmenet_20-8" x1="65.67" y1="26.37" x2="90.99" y2="61.78" xlink:href="#Névtelen_színátmenet_20"/><linearGradient id="Névtelen_színátmenet_20-9" x1="2.63" y1="83.79" x2="28.86" y2="120.46" gradientTransform="translate(30.68 203.12) rotate(-180)" xlink:href="#Névtelen_színátmenet_20"/><linearGradient id="Névtelen_színátmenet_20-10" x1="2.63" y1="141.82" x2="28.86" y2="178.49" gradientTransform="translate(30.68 319.18) rotate(-180)" xlink:href="#Névtelen_színátmenet_20"/><linearGradient id="Névtelen_színátmenet_20-11" x1="2.63" y1="112.81" x2="28.86" y2="149.47" gradientTransform="translate(30.68 261.15) rotate(-180)" xlink:href="#Névtelen_színátmenet_20"/></defs><g id="Réteg_2" data-name="Réteg 2"><g id="Réteg_1" data-name="Réteg 1"><polygon class="cls-1" points="30.68 0 30.68 27.71 28.22 27.71 28.22 29.02 0 29.02 0 6.86 7.02 0 30.68 0"/><rect class="cls-2" x="30.68" width="30.68" height="27.71"/><polygon class="cls-3" points="92.05 8.15 92.05 29.02 63.82 29.02 63.82 27.71 61.36 27.71 61.36 0 84.08 0 92.05 8.15"/><polygon class="cls-4" points="30.68 59.35 30.68 87.05 0 87.05 0 58.04 28.22 58.04 28.22 59.35 30.68 59.35"/><rect class="cls-5" x="30.68" y="59.35" width="30.68" height="27.7"/><polygon class="cls-6" points="92.05 58.04 92.05 77.19 81.96 87.05 61.36 87.05 61.36 59.35 63.82 59.35 63.82 58.04 92.05 58.04"/><rect class="cls-7" y="29.02" width="28.22" height="29.02"/><rect class="cls-8" x="63.82" y="29.02" width="28.23" height="29.02"/><rect class="cls-9" y="87.05" width="30.68" height="29.02" transform="translate(30.68 203.12) rotate(180)"/><rect class="cls-10" y="145.08" width="30.68" height="29.02" transform="translate(30.68 319.18) rotate(180)"/><rect class="cls-11" y="116.07" width="30.68" height="29.02" transform="translate(30.68 261.15) rotate(180)"/></g></g></svg>